<svg width="17" height="17" viewBox="0 0 17 17" fill="none" xmlns="http://www.w3.org/2000/svg">
<path d="M12 1.37132C12.197 1.17434 12.4308 1.01808 12.6882 0.911476C12.9456 0.804869 13.2214 0.75 13.5 0.75C13.7786 0.75 14.0544 0.804869 14.3118 0.911476C14.5692 1.01808 14.803 1.17434 15 1.37132C15.197 1.5683 15.3532 1.80216 15.4598 2.05953C15.5664 2.3169 15.6213 2.59274 15.6213 2.87132C15.6213 3.1499 15.5664 3.42574 15.4598 3.68311C15.3532 3.94048 15.197 4.17434 15 4.37132L4.875 14.4963L0.75 15.6213L1.875 11.4963L12 1.37132Z" stroke="#F6B83D" stroke-width="1.5" stroke-linecap="round" stroke-linejoin="round"/>
</svg>
