<svg width="33" height="31" viewBox="0 0 33 31" fill="none" xmlns="http://www.w3.org/2000/svg">
<path d="M11.6875 0C10.2162 0 8.93475 0.836 8.12075 1.97725C7.30675 3.1185 6.875 4.5925 6.875 6.1875C6.875 7.7825 7.30675 9.25788 8.12075 10.3991C8.93475 11.5404 10.2162 12.375 11.6875 12.375C13.1588 12.375 14.4402 11.539 15.2542 10.3978C16.0683 9.2565 16.5 7.7825 16.5 6.1875C16.5 4.5925 16.0683 3.11713 15.2542 1.97587C14.4402 0.834625 13.1588 0 11.6875 0ZM16.5 6.1875C16.5 7.7825 16.9317 9.25788 17.7458 10.3991C18.5597 11.5404 19.8426 12.375 21.3125 12.375C22.7838 12.375 24.0653 11.539 24.8792 10.3978C25.6933 9.2565 26.125 7.7825 26.125 6.1875C26.125 4.5925 25.6933 3.11713 24.8792 1.97587C24.0653 0.834625 22.7838 0 21.3125 0C19.8412 0 18.5597 0.836 17.7458 1.97725C16.9317 3.1185 16.5 4.5925 16.5 6.1875ZM11.6875 2.75C12.1165 2.75 12.5895 2.9645 13.0213 3.56675C13.4475 4.16762 13.75 5.12463 13.75 6.1875C13.75 7.25038 13.4475 8.20875 13.0213 8.80825C12.5895 9.4105 12.1165 9.625 11.6875 9.625C11.2585 9.625 10.7855 9.4105 10.3537 8.80825C9.9275 8.20738 9.625 7.25038 9.625 6.1875C9.625 5.12463 9.9275 4.16625 10.3537 3.56675C10.7855 2.9645 11.2585 2.75 11.6875 2.75ZM21.3125 2.75C21.7415 2.75 22.2145 2.9645 22.6462 3.56675C23.0725 4.16762 23.375 5.12463 23.375 6.1875C23.375 7.25038 23.0725 8.20875 22.6462 8.80825C22.2145 9.4105 21.7415 9.625 21.3125 9.625C20.8835 9.625 20.4105 9.4105 19.9788 8.80825C19.5525 8.20738 19.25 7.25038 19.25 6.1875C19.25 5.12463 19.5525 4.16625 19.9788 3.56675C20.4105 2.9645 20.8835 2.75 21.3125 2.75ZM4.8125 9.625C3.34125 9.625 2.05975 10.461 1.24575 11.6023C0.43175 12.7435 0 14.2175 0 15.8125C0 17.4075 0.43175 18.8829 1.24575 20.0241C2.05975 21.1654 3.34125 22 4.8125 22C6.28375 22 7.56525 21.164 8.37925 20.0228C9.19325 18.8815 9.625 17.4075 9.625 15.8125C9.625 14.2175 9.19325 12.7421 8.37925 11.6009C7.56525 10.4596 6.28375 9.625 4.8125 9.625ZM28.1875 9.625C26.7162 9.625 25.4347 10.461 24.6208 11.6023C23.8067 12.7435 23.375 14.2175 23.375 15.8125C23.375 17.4075 23.8067 18.8829 24.6208 20.0241C25.4347 21.1654 26.7162 22 28.1875 22C29.6588 22 30.9403 21.164 31.7542 20.0228C32.5682 18.8815 33 17.4075 33 15.8125C33 14.2175 32.5682 12.7421 31.7542 11.6009C30.9403 10.4596 29.6588 9.625 28.1875 9.625ZM4.8125 12.375C5.2415 12.375 5.7145 12.5895 6.14625 13.1918C6.5725 13.7926 6.875 14.7496 6.875 15.8125C6.875 16.8754 6.5725 17.8338 6.14625 18.4333C5.7145 19.0355 5.2415 19.25 4.8125 19.25C4.3835 19.25 3.9105 19.0355 3.47875 18.4333C3.0525 17.8338 2.75 16.8754 2.75 15.8125C2.75 14.7496 3.0525 13.7913 3.47875 13.1918C3.9105 12.5895 4.3835 12.375 4.8125 12.375ZM28.1875 12.375C28.6165 12.375 29.0895 12.5895 29.5212 13.1918C29.9475 13.7926 30.25 14.7496 30.25 15.8125C30.25 16.8754 29.9475 17.8338 29.5212 18.4333C29.0895 19.0355 28.6165 19.25 28.1875 19.25C27.7585 19.25 27.2855 19.0355 26.8538 18.4333C26.4275 17.8324 26.125 16.8754 26.125 15.8125C26.125 14.7496 26.4275 13.7913 26.8538 13.1918C27.2855 12.5895 27.7585 12.375 28.1875 12.375ZM16.5 15.125C14.6671 15.125 13.3884 16.3144 12.76 17.3594C12.1357 18.4044 11.7507 19.2734 11.385 19.6364C11.1746 19.8523 9.84775 20.3514 8.4645 21.0568C7.77288 21.4101 7.07575 21.8818 6.48862 22.6036C5.89737 23.3255 5.49863 24.3224 5.49863 25.4403C5.49863 28.0803 7.67112 30.2528 10.3111 30.2528C11.5019 30.2528 12.7449 29.8678 13.9618 29.524C15.1841 29.172 16.5 28.875 16.5 28.875C16.5 28.875 17.8159 29.172 19.0355 29.5213C20.2537 29.865 21.4967 30.25 22.6875 30.25C25.3275 30.25 27.5 28.0775 27.5 25.4375C27.5 24.3458 27.0971 23.3475 26.51 22.6463C25.9256 21.9409 25.2216 21.505 24.5355 21.1406C23.1605 20.4119 21.8089 19.8344 21.6136 19.6364C21.2836 19.3105 20.9124 18.4126 20.2799 17.3621C19.6488 16.3075 18.3425 15.125 16.5 15.125ZM16.5 17.875C17.4075 17.875 17.5079 18.095 17.9163 18.777C18.3288 19.4576 18.6368 20.614 19.635 21.6136C20.7694 22.7411 22.2021 22.9886 23.2458 23.5441C23.7682 23.8219 24.167 24.1175 24.4062 24.4035C24.6441 24.6881 24.75 24.948 24.75 25.4348C24.75 26.5898 23.8425 27.4973 22.6875 27.4973C22.2887 27.4973 21.0045 27.1948 19.8083 26.851C18.612 26.5114 17.622 26.1223 16.5 26.1223C15.378 26.1223 14.388 26.5114 13.1917 26.851C11.9955 27.1948 10.7113 27.4973 10.3125 27.4973C9.1575 27.4973 8.25 26.5898 8.25 25.4348C8.25 24.8806 8.3655 24.596 8.59375 24.3155C8.822 24.0364 9.24275 23.76 9.75425 23.5001C10.7773 22.9776 12.2017 22.7714 13.3636 21.6095C14.3715 20.5961 14.674 19.4026 15.0824 18.7289C15.4839 18.0551 15.5801 17.8695 16.4986 17.8695L16.5 17.875Z" fill="#F6B83D"/>
</svg>
