<svg width="18" height="16" viewBox="0 0 18 16" fill="none" xmlns="http://www.w3.org/2000/svg">
<path d="M15.2185 1.95887C14.8354 1.57562 14.3806 1.2716 13.88 1.06418C13.3794 0.85676 12.8428 0.75 12.301 0.75C11.7591 0.75 11.2225 0.85676 10.722 1.06418C10.2214 1.2716 9.76653 1.57562 9.38347 1.95887L8.58847 2.75387L7.79347 1.95887C7.0197 1.1851 5.97024 0.750401 4.87597 0.750401C3.78169 0.750401 2.73224 1.1851 1.95847 1.95887C1.1847 2.73264 0.75 3.78209 0.75 4.87637C0.75 5.97064 1.1847 7.0201 1.95847 7.79387L2.75347 8.58887L8.58847 14.4239L14.4235 8.58887L15.2185 7.79387C15.6017 7.4108 15.9057 6.95598 16.1132 6.45539C16.3206 5.95479 16.4273 5.41823 16.4273 4.87637C16.4273 4.3345 16.3206 3.79795 16.1132 3.29735C15.9057 2.79676 15.6017 2.34194 15.2185 1.95887Z" stroke="#F6B83D" stroke-width="1.5" stroke-linecap="round" stroke-linejoin="round"/>
</svg>
