<svg width="6" height="12" viewBox="0 0 6 12" fill="none" xmlns="http://www.w3.org/2000/svg">
<path d="M1.90613 6.42567C1.82803 6.3482 1.76603 6.25604 1.72372 6.15449C1.68142 6.05294 1.65964 5.94401 1.65964 5.834C1.65964 5.72399 1.68142 5.61507 1.72372 5.51352C1.76603 5.41197 1.82803 5.31981 1.90613 5.24234L5.73113 1.42566C5.80924 1.34819 5.87124 1.25603 5.91354 1.15448C5.95585 1.05293 5.97763 0.944005 5.97763 0.833995C5.97763 0.723985 5.95585 0.615064 5.91354 0.513514C5.87124 0.411964 5.80924 0.319797 5.73113 0.242327C5.575 0.0871181 5.36379 0 5.14363 0C4.92348 0 4.71227 0.0871181 4.55613 0.242327L0.731133 4.06733C0.262965 4.53609 0 5.1715 0 5.834C0 6.49651 0.262965 7.13192 0.731133 7.60067L4.55613 11.4257C4.71135 11.5796 4.92085 11.6664 5.13947 11.6673C5.24914 11.668 5.35786 11.647 5.45939 11.6055C5.56092 11.564 5.65327 11.5029 5.73113 11.4257C5.80924 11.3482 5.87124 11.256 5.91354 11.1545C5.95585 11.0529 5.97763 10.944 5.97763 10.834C5.97763 10.724 5.95585 10.6151 5.91354 10.5135C5.87124 10.412 5.80924 10.3198 5.73113 10.2423L1.90613 6.42567Z" fill="#262626" fill-opacity="0.5"/>
</svg>
