<svg width="18" height="16" viewBox="0 0 18 16" fill="none" xmlns="http://www.w3.org/2000/svg">
<path fill-rule="evenodd" clip-rule="evenodd" d="M5.77074 3.74496C5.05311 3.46472 4.26305 3.42919 3.52317 3.64388C2.78328 3.85856 2.13495 4.31147 1.67878 4.9323C1.22261 5.55313 0.984114 6.30717 1.00031 7.0774C1.0165 7.84763 1.28647 8.59099 1.76833 9.1921C2.25019 9.79321 2.91699 10.2185 3.66524 10.4019C4.41349 10.5853 5.20136 10.5166 5.90658 10.2064C6.61179 9.89626 7.19491 9.36201 7.56545 8.68656C7.93599 8.01112 8.07322 7.23226 7.95585 6.47085C7.94587 6.40597 7.94877 6.33976 7.96439 6.276C7.98 6.21224 8.00801 6.15219 8.04683 6.09925C8.08566 6.04632 8.13452 6.00156 8.19065 5.96751C8.24677 5.93347 8.30905 5.91081 8.37393 5.90083C8.43881 5.89086 8.50502 5.89376 8.56878 5.90937C8.63253 5.92498 8.6926 5.95299 8.74553 5.99182C8.79846 6.03064 8.84322 6.07951 8.87727 6.13563C8.91131 6.19175 8.93397 6.25403 8.94395 6.31891C9.09469 7.29785 8.91811 8.29916 8.4416 9.16749C7.9651 10.0358 7.21533 10.7226 6.30862 11.1212C5.40192 11.5199 4.38899 11.6081 3.42701 11.3723C2.46503 11.1364 1.6078 10.5896 0.988328 9.81676C0.36886 9.04392 0.0217963 8.08821 0.000992872 7.09796C-0.0198106 6.10771 0.286809 5.13827 0.873273 4.34009C1.45974 3.54191 2.29325 2.95961 3.24448 2.68355C4.1957 2.4075 5.21144 2.45312 6.13409 2.81334C6.19607 2.83658 6.25281 2.8719 6.30102 2.91725C6.34923 2.96261 6.38796 3.01708 6.41495 3.07752C6.44194 3.13796 6.45665 3.20316 6.45824 3.26933C6.45982 3.33551 6.44825 3.40133 6.42418 3.463C6.40012 3.52466 6.36405 3.58093 6.31806 3.62854C6.27208 3.67615 6.21709 3.71414 6.1563 3.74033C6.09551 3.76652 6.03012 3.78036 5.96393 3.78107C5.89775 3.78178 5.83208 3.76984 5.77074 3.74496Z" fill="#F6B83D"/>
<path fill-rule="evenodd" clip-rule="evenodd" d="M3.99841 15.5002V11.5018C3.99841 11.3693 4.05107 11.2421 4.1448 11.1484C4.23853 11.0547 4.36566 11.002 4.49821 11.002C4.63076 11.002 4.75789 11.0547 4.85162 11.1484C4.94535 11.2421 4.99801 11.3693 4.99801 11.5018V15.5002C4.99801 15.6327 4.94535 15.7599 4.85162 15.8536C4.75789 15.9473 4.63076 16 4.49821 16C4.36566 16 4.23853 15.9473 4.1448 15.8536C4.05107 15.7599 3.99841 15.6327 3.99841 15.5002Z" fill="#F6B83D"/>
<path fill-rule="evenodd" clip-rule="evenodd" d="M2.49902 13.0012C2.49902 12.8687 2.55168 12.7416 2.64541 12.6478C2.73914 12.5541 2.86627 12.5014 2.99882 12.5014H5.9976C6.13016 12.5014 6.25728 12.5541 6.35101 12.6478C6.44474 12.7416 6.4974 12.8687 6.4974 13.0012C6.4974 13.1338 6.44474 13.2609 6.35101 13.3546C6.25728 13.4484 6.13016 13.501 5.9976 13.501H2.99882C2.86627 13.501 2.73914 13.4484 2.64541 13.3546C2.55168 13.2609 2.49902 13.1338 2.49902 13.0012ZM11.4464 3.63654C10.8925 3.48018 10.3086 3.46287 9.74644 3.58615C9.18427 3.70944 8.66119 3.9695 8.22358 4.3433C7.78596 4.7171 7.44732 5.19309 7.23767 5.72908C7.02802 6.26506 6.95383 6.84449 7.02169 7.41601C7.0298 7.48136 7.02491 7.54767 7.00731 7.61112C6.98972 7.67458 6.95975 7.73394 6.91914 7.78578C6.87853 7.83762 6.82808 7.88092 6.77068 7.9132C6.71328 7.94548 6.65006 7.9661 6.58467 7.97387C6.51928 7.98164 6.45299 7.97641 6.38963 7.95848C6.32626 7.94055 6.26707 7.91028 6.21544 7.8694C6.16381 7.82852 6.12077 7.77784 6.08879 7.72028C6.05681 7.66271 6.03652 7.59939 6.02909 7.53396C5.91232 6.55037 6.12346 5.55575 6.62975 4.70443C7.13604 3.85311 7.90917 3.1927 8.82916 2.82568C9.74914 2.45867 10.7645 2.40557 11.7178 2.67463C12.671 2.9437 13.5088 3.51987 14.1011 4.31374C14.6935 5.10761 15.0072 6.07479 14.9936 7.06519C14.9801 8.05559 14.64 9.01383 14.0262 9.7912C13.4124 10.5686 12.5592 11.1216 11.5989 11.3645C10.6387 11.6074 9.6251 11.5265 8.7155 11.1345C8.65521 11.1085 8.60063 11.071 8.55487 11.0239C8.50911 10.9769 8.47306 10.9212 8.44879 10.8603C8.39977 10.7371 8.40168 10.5995 8.4541 10.4778C8.50653 10.356 8.60517 10.2601 8.72834 10.2111C8.8515 10.162 8.98909 10.1639 9.11084 10.2164C9.55056 10.4058 10.0245 10.503 10.5033 10.5019C10.9821 10.5008 11.4556 10.4014 11.8944 10.2099C12.3332 10.0184 12.7281 9.73892 13.0546 9.38866C13.381 9.0384 13.6321 8.62486 13.7922 8.17364C13.9524 7.72242 14.0182 7.24313 13.9857 6.76544C13.9531 6.28775 13.8229 5.82182 13.603 5.39651C13.3831 4.97119 13.0782 4.59554 12.7072 4.29281C12.3363 3.99008 11.9072 3.76672 11.4464 3.63654Z" fill="#F6B83D"/>
<path fill-rule="evenodd" clip-rule="evenodd" d="M13.3911 4.60814C13.2974 4.51441 13.2448 4.38731 13.2448 4.25478C13.2448 4.12225 13.2974 3.99515 13.3911 3.90143L17.1396 0.152948C17.1857 0.105213 17.2408 0.0671368 17.3018 0.0409429C17.3628 0.0147491 17.4284 0.000961755 17.4947 0.000385081C17.5611 -0.000191592 17.6269 0.0124543 17.6883 0.0375845C17.7497 0.0627147 17.8055 0.0998262 17.8525 0.146754C17.8994 0.193681 17.9365 0.249484 17.9616 0.310907C17.9868 0.37233 17.9994 0.438143 17.9988 0.504506C17.9983 0.570869 17.9845 0.636452 17.9583 0.697429C17.9321 0.758407 17.894 0.813556 17.8463 0.859661L14.0978 4.60814C14.0041 4.70184 13.877 4.75447 13.7444 4.75447C13.6119 4.75447 13.4848 4.70184 13.3911 4.60814Z" fill="#F6B83D"/>
<path fill-rule="evenodd" clip-rule="evenodd" d="M17.4549 3.50508C17.3892 3.50423 17.3244 3.49046 17.2641 3.46456C17.2038 3.43865 17.1491 3.40112 17.1033 3.35411C17.0575 3.30709 17.0214 3.25151 16.9971 3.19055C16.9728 3.12958 16.9607 3.06442 16.9616 2.99878L16.9865 1.01259L15.0004 1.03758C14.8678 1.0393 14.74 0.988297 14.645 0.895786C14.5501 0.803274 14.4958 0.676833 14.4941 0.544279C14.4923 0.411725 14.5433 0.283915 14.6359 0.188966C14.7284 0.0940174 14.8548 0.0397076 14.9874 0.0379844L17.9991 0L17.9612 3.01178C17.9603 3.07741 17.9465 3.14224 17.9206 3.20255C17.8947 3.26287 17.8572 3.31749 17.8102 3.3633C17.7632 3.4091 17.7076 3.4452 17.6466 3.46953C17.5857 3.49386 17.5205 3.50594 17.4549 3.50508Z" fill="#F6B83D"/>
</svg>
