<svg width="6" height="12" viewBox="0 0 6 12" fill="none" xmlns="http://www.w3.org/2000/svg">
<path d="M4.07238 6.42567C4.15049 6.3482 4.21248 6.25603 4.25479 6.15448C4.2971 6.05293 4.31888 5.94401 4.31888 5.834C4.31888 5.72399 4.2971 5.61507 4.25479 5.51352C4.21248 5.41197 4.15049 5.3198 4.07238 5.24233L0.247382 1.42566C0.169275 1.34819 0.107279 1.25603 0.064972 1.15448C0.0226648 1.05293 0.000883502 0.944005 0.000883502 0.833995C0.000883502 0.723985 0.0226648 0.615063 0.064972 0.513514C0.107279 0.411964 0.169275 0.319797 0.247382 0.242327C0.403518 0.087118 0.614727 0 0.834882 0C1.05504 0 1.26625 0.087118 1.42238 0.242327L5.24738 4.06733C5.71555 4.53608 5.97852 5.1715 5.97852 5.834C5.97852 6.4965 5.71555 7.13192 5.24738 7.60067L1.42238 11.4257C1.26716 11.5796 1.05767 11.6664 0.839049 11.6673C0.729377 11.668 0.620657 11.647 0.519126 11.6055C0.417595 11.564 0.325249 11.5029 0.247382 11.4257C0.169275 11.3482 0.107279 11.256 0.064972 11.1545C0.0226648 11.0529 0.000883502 10.944 0.000883502 10.834C0.000883502 10.724 0.0226648 10.6151 0.064972 10.5135C0.107279 10.412 0.169275 10.3198 0.247382 10.2423L4.07238 6.42567Z" fill="#262626"/>
</svg>
