<svg width="18" height="18" viewBox="0 0 18 18" fill="none" xmlns="http://www.w3.org/2000/svg">
<path d="M12 12L9 9L6 12" stroke="#F6B83D" stroke-width="1.3" stroke-linecap="round" stroke-linejoin="round"/>
<path d="M9 9V15.75" stroke="#F6B83D" stroke-width="1.3" stroke-linecap="round" stroke-linejoin="round"/>
<path d="M15.2926 13.7926C16.0241 13.3938 16.602 12.7628 16.935 11.9991C17.268 11.2354 17.3372 10.3825 17.1317 9.57513C16.9262 8.76772 16.4577 8.05174 15.8001 7.54019C15.1425 7.02865 14.3332 6.75066 13.5001 6.75011H12.5551C12.3281 5.87204 11.905 5.05686 11.3175 4.36585C10.7301 3.67485 9.99372 3.126 9.16366 2.76057C8.3336 2.39513 7.4315 2.22263 6.52518 2.25602C5.61885 2.28941 4.73189 2.52784 3.93097 2.95336C3.13006 3.37888 2.43602 3.98044 1.90106 4.7128C1.36609 5.44516 1.00411 6.28926 0.842327 7.18166C0.680545 8.07405 0.723171 8.99151 0.967002 9.86505C1.21083 10.7386 1.64952 11.5455 2.25009 12.2251" stroke="#F6B83D" stroke-width="1.3" stroke-linecap="round" stroke-linejoin="round"/>
<path d="M12 12L9 9L6 12" stroke="#F6B83D" stroke-width="1.3" stroke-linecap="round" stroke-linejoin="round"/>
</svg>
